<svg width="20" height="19" viewBox="0 0 20 19" fill="none" xmlns="http://www.w3.org/2000/svg">
<g id="Calque_1" clip-path="url(#clip0_6477_5119)">
<path id="Vector" d="M18.49 17.24H17.6V8.2C17.6 6.89 17.4 5.99 16.34 4.91V0.8C16.34 0.36 15.98 0 15.54 0H13.26C12.82 0 12.46 0.36 12.46 0.8V4.96C11.41 5.98 11.21 6.89 11.21 8.21V17.25H10.27C10.53 16.9 10.7 16.48 10.7 16.01V11.47C10.7 10.62 10.18 9.89 9.44 9.58C9.47 9.5 9.49 9.42 9.49 9.34V8.74C9.49 8.38 9.19 8.08 8.83 8.08H3.91C3.55 8.08 3.25 8.38 3.25 8.74V9.34C3.25 9.43 3.27 9.51 3.3 9.58C2.56 9.89 2.04 10.62 2.04 11.47V16.01C2.04 16.48 2.2 16.9 2.47 17.25H1.3C0.86 17.25 0.5 17.61 0.5 18.05C0.5 18.49 0.86 18.85 1.3 18.85H18.49C18.93 18.85 19.29 18.49 19.29 18.05C19.29 17.61 18.93 17.25 18.49 17.25V17.24ZM12.81 8.2C12.81 7.09 12.95 6.7 13.57 6.09C13.88 5.78 14.06 5.35 14.06 4.9V1.6H14.74V4.91C14.74 5.36 14.92 5.79 15.23 6.1C15.85 6.71 16 7.13 16 8.21V16.46H12.81V8.21V8.2ZM3.65 11.46C3.65 11.21 3.85 11.01 4.1 11.01H8.64C8.89 11.01 9.09 11.21 9.09 11.46V16C9.09 16.25 8.89 16.45 8.64 16.45H4.1C3.85 16.45 3.65 16.25 3.65 16V11.46Z" fill="#616A7A"/>
</g>
<defs>
<clipPath id="clip0_6477_5119">
<rect width="18.79" height="18.84" fill="white" transform="translate(0.5)"/>
</clipPath>
</defs>
</svg>
